<svg width="640" height="420" viewBox="0 0 640 420" fill="none" xmlns="http://www.w3.org/2000/svg">
  <defs>
    <linearGradient id="bg" x1="42" y1="34" x2="603" y2="385" gradientUnits="userSpaceOnUse">
      <stop stop-color="#EAF9FF"/>
      <stop offset="1" stop-color="#D9F8EC"/>
    </linearGradient>
    <linearGradient id="tooth" x1="267" y1="64" x2="370" y2="354" gradientUnits="userSpaceOnUse">
      <stop stop-color="#FFFFFF"/>
      <stop offset="1" stop-color="#E9F4FF"/>
    </linearGradient>
    <linearGradient id="chair" x1="103" y1="222" x2="555" y2="222" gradientUnits="userSpaceOnUse">
      <stop stop-color="#0E8D9B"/>
      <stop offset="1" stop-color="#13A9A4"/>
    </linearGradient>
  </defs>

  <rect x="8" y="8" width="624" height="404" rx="36" fill="url(#bg)"/>
  <circle cx="110" cy="84" r="40" fill="#FFD5B6"/>
  <circle cx="545" cy="340" r="58" fill="#FFE8D4"/>
  <circle cx="525" cy="100" r="28" fill="#C8EFF9"/>

  <rect x="96" y="248" width="462" height="95" rx="24" fill="url(#chair)"/>
  <rect x="120" y="220" width="152" height="34" rx="14" fill="#0A6C78"/>
  <rect x="388" y="220" width="170" height="34" rx="14" fill="#17B6AB"/>

  <path d="M273 78C258 92 240 112 235 146C228 195 253 215 257 252C261 287 250 322 278 343C299 357 320 333 320 301C320 333 343 358 366 343C394 322 383 287 387 252C391 215 416 195 409 146C404 112 386 92 371 78C355 62 336 61 320 76C304 61 289 62 273 78Z" fill="url(#tooth)" stroke="#9CCDDD" stroke-width="5"/>
  <path d="M320 118V171" stroke="#9CCDDD" stroke-width="4" stroke-linecap="round"/>
  <path d="M286 143H354" stroke="#9CCDDD" stroke-width="4" stroke-linecap="round"/>

  <rect x="194" y="150" width="58" height="14" rx="7" fill="#9AD8EA"/>
  <rect x="388" y="162" width="52" height="14" rx="7" fill="#9AD8EA"/>

  <rect x="18" y="18" width="604" height="384" rx="30" stroke="#9CCDDD" stroke-width="2"/>
</svg>
